<svg width="50" height="50" viewBox="0 0 50 50" fill="none" xmlns="http://www.w3.org/2000/svg">
<path d="M40.1459 11.1042C37.375 9.81251 34.375 8.87501 31.25 8.33335C31.2226 8.33247 31.1954 8.33761 31.1702 8.34841C31.145 8.35921 31.1224 8.3754 31.1042 8.39585C30.7292 9.08335 30.2917 9.97918 30 10.6667C26.6854 10.1667 23.3146 10.1667 20 10.6667C19.7084 9.95835 19.2709 9.08335 18.875 8.39585C18.8542 8.35418 18.7917 8.33335 18.7292 8.33335C15.6042 8.87501 12.625 9.81251 9.83335 11.1042C9.81252 11.1042 9.79169 11.125 9.77085 11.1458C4.10419 19.625 2.54169 27.875 3.31252 36.0417C3.31252 36.0833 3.33335 36.125 3.37502 36.1458C7.12502 38.8958 10.7292 40.5625 14.2917 41.6667C14.3542 41.6875 14.4167 41.6667 14.4375 41.625C15.2709 40.4792 16.0209 39.2708 16.6667 38C16.7084 37.9167 16.6667 37.8333 16.5834 37.8125C15.3959 37.3542 14.2709 36.8125 13.1667 36.1875C13.0834 36.1458 13.0834 36.0208 13.1459 35.9583C13.375 35.7917 13.6042 35.6042 13.8334 35.4375C13.875 35.3958 13.9375 35.3958 13.9792 35.4167C21.1459 38.6875 28.875 38.6875 35.9584 35.4167C36 35.3958 36.0625 35.3958 36.1042 35.4375C36.3334 35.625 36.5625 35.7917 36.7917 35.9792C36.875 36.0417 36.875 36.1667 36.7709 36.2083C35.6875 36.8542 34.5417 37.375 33.3542 37.8333C33.2709 37.8542 33.25 37.9583 33.2709 38.0208C33.9375 39.2917 34.6875 40.5 35.5 41.6458C35.5625 41.6667 35.625 41.6875 35.6875 41.6667C39.2709 40.5625 42.875 38.8958 46.625 36.1458C46.6667 36.125 46.6875 36.0833 46.6875 36.0417C47.6042 26.6042 45.1667 18.4167 40.2292 11.1458C40.2084 11.125 40.1875 11.1042 40.1459 11.1042ZM17.75 31.0625C15.6042 31.0625 13.8125 29.0833 13.8125 26.6458C13.8125 24.2083 15.5625 22.2292 17.75 22.2292C19.9584 22.2292 21.7084 24.2292 21.6875 26.6458C21.6875 29.0833 19.9375 31.0625 17.75 31.0625ZM32.2709 31.0625C30.125 31.0625 28.3334 29.0833 28.3334 26.6458C28.3334 24.2083 30.0834 22.2292 32.2709 22.2292C34.4792 22.2292 36.2292 24.2292 36.2084 26.6458C36.2084 29.0833 34.4792 31.0625 32.2709 31.0625Z" fill="black"/>
</svg>
