<svg width="50" height="50" viewBox="0 0 50 50" fill="none" xmlns="http://www.w3.org/2000/svg">
<path d="M27.1417 4.16882C28.6619 4.16299 30.1822 4.17827 31.7021 4.21466L32.1063 4.22924C32.5729 4.24591 33.0333 4.26674 33.5896 4.29174C35.8062 4.39591 37.3188 4.74591 38.6458 5.26049C40.0208 5.78966 41.1792 6.50632 42.3375 7.66466C43.3966 8.7055 44.2163 9.96455 44.7396 11.3542C45.2542 12.6813 45.6042 14.1959 45.7083 16.4126C45.7333 16.9667 45.7542 17.4292 45.7708 17.8959L45.7833 18.3001C45.8204 19.8192 45.8363 21.3388 45.8313 22.8584L45.8333 24.4126V27.1417C45.8385 28.662 45.8225 30.1823 45.7854 31.7022L45.7729 32.1063C45.7563 32.573 45.7354 33.0334 45.7104 33.5897C45.6063 35.8063 45.2521 37.3188 44.7396 38.6459C44.218 40.0371 43.3981 41.2972 42.3375 42.3376C41.2958 43.3966 40.0361 44.2162 38.6458 44.7397C37.3188 45.2542 35.8062 45.6042 33.5896 45.7084C33.0333 45.7334 32.5729 45.7542 32.1063 45.7709L31.7021 45.7834C30.1822 45.8204 28.662 45.8364 27.1417 45.8313L25.5875 45.8334H22.8604C21.3401 45.8385 19.8198 45.8226 18.3 45.7855L17.8958 45.773C17.4013 45.7551 16.9068 45.7342 16.4125 45.7105C14.1958 45.6063 12.6833 45.2522 11.3542 44.7397C9.96393 44.2175 8.70466 43.3976 7.66458 42.3376C6.60426 41.2965 5.7838 40.0367 5.26042 38.6459C4.74584 37.3188 4.39583 35.8063 4.29167 33.5897C4.26847 33.0953 4.24763 32.6009 4.22917 32.1063L4.21875 31.7022C4.18034 30.1823 4.16298 28.662 4.16667 27.1417V22.8584C4.16085 21.3388 4.17613 19.8192 4.2125 18.3001L4.22709 17.8959C4.24375 17.4292 4.26459 16.9667 4.28959 16.4126C4.39375 14.1938 4.74375 12.6834 5.25833 11.3542C5.78203 9.96387 6.60409 8.70517 7.66667 7.66674C8.70603 6.60581 9.9645 5.7846 11.3542 5.26049C12.6833 4.74591 14.1938 4.39591 16.4125 4.29174L17.8958 4.22924L18.3 4.21882C19.8191 4.18043 21.3387 4.16307 22.8583 4.16674L27.1417 4.16882ZM25 14.5855C23.6198 14.566 22.2495 14.821 20.9687 15.3356C19.6879 15.8503 18.5222 16.6144 17.5393 17.5835C16.5563 18.5526 15.7758 19.7074 15.2431 20.9808C14.7104 22.2542 14.436 23.6208 14.436 25.0011C14.436 26.3814 14.7104 27.748 15.2431 29.0214C15.7758 30.2948 16.5563 31.4496 17.5393 32.4187C18.5222 33.3878 19.6879 34.1519 20.9687 34.6666C22.2495 35.1813 23.6198 35.4363 25 35.4167C27.7627 35.4167 30.4122 34.3193 32.3657 32.3658C34.3192 30.4123 35.4167 27.7627 35.4167 25.0001C35.4167 22.2374 34.3192 19.5879 32.3657 17.6344C30.4122 15.6809 27.7627 14.5855 25 14.5855ZM25 18.7522C25.8302 18.7369 26.6552 18.8872 27.4267 19.1943C28.1981 19.5014 28.9007 19.9591 29.4933 20.5408C30.0859 21.1225 30.5566 21.8164 30.878 22.582C31.1994 23.3477 31.365 24.1697 31.3651 25.0001C31.3653 25.8304 31.2 26.6525 30.8788 27.4182C30.5577 28.184 30.0872 28.8781 29.4948 29.4599C28.9024 30.0418 28.2 30.4998 27.4286 30.8072C26.6572 31.1145 25.8323 31.2651 25.0021 31.2501C23.3445 31.2501 21.7548 30.5916 20.5827 29.4195C19.4106 28.2474 18.7521 26.6577 18.7521 25.0001C18.7521 23.3425 19.4106 21.7528 20.5827 20.5807C21.7548 19.4086 23.3445 18.7501 25.0021 18.7501L25 18.7522ZM35.9375 11.4605C35.2654 11.4874 34.6298 11.7733 34.1638 12.2583C33.6977 12.7434 33.4375 13.3899 33.4375 14.0626C33.4375 14.7352 33.6977 15.3818 34.1638 15.8668C34.6298 16.3518 35.2654 16.6378 35.9375 16.6647C36.6282 16.6647 37.2906 16.3903 37.7789 15.9019C38.2673 15.4135 38.5417 14.7512 38.5417 14.0605C38.5417 13.3698 38.2673 12.7074 37.7789 12.2191C37.2906 11.7307 36.6282 11.4563 35.9375 11.4563V11.4605Z" fill="black"/>
</svg>
