<svg width="499" height="66" viewBox="0 0 499 66" fill="none" xmlns="http://www.w3.org/2000/svg">
<path d="M33.0052 12.3715C33.7336 11.7929 34.7648 11.7929 35.4931 12.3715L65.9759 36.5847C66.9773 37.3802 66.9851 38.8983 65.9919 39.704L35.5092 64.4324C34.7748 65.0281 33.7236 65.0281 32.9892 64.4324L2.50646 39.704C1.51324 38.8983 1.52105 37.3802 2.52249 36.5847L33.0052 12.3715Z" fill="#989EAE"/>
<path d="M34.2492 0L67.9268 26.751L34.2492 54.0711L0.571594 26.751L34.2492 0Z" fill="#5F6B8C"/>
<path d="M34.2491 53.6621L69.536 27.0363" stroke="white"/>
<path d="M80.0183 48.3326V19.2416H90.7995C92.8734 19.2416 94.5921 19.5778 95.9558 20.2502C97.3194 20.9225 98.3374 21.8363 99.0097 22.9916C99.6916 24.1375 100.032 25.4254 100.032 26.8553C100.032 28.0579 99.8052 29.0759 99.3507 29.9093C98.9056 30.7426 98.309 31.4102 97.5609 31.9121C96.8222 32.414 95.9984 32.7786 95.0893 33.0058V33.2899C96.0647 33.3468 97.0164 33.664 97.9444 34.2416C98.8819 34.8098 99.6537 35.6195 100.26 36.6706C100.866 37.7123 101.169 38.9812 101.169 40.4774C101.169 41.9736 100.814 43.3136 100.103 44.4973C99.4027 45.681 98.3232 46.6185 96.8649 47.3098C95.416 47.9916 93.5694 48.3326 91.3251 48.3326H80.0183ZM84.6347 44.4121H90.7995C92.8639 44.4121 94.3412 44.0144 95.2313 43.2189C96.1215 42.4235 96.5666 41.4244 96.5666 40.2218C96.5666 39.3127 96.3393 38.4841 95.8847 37.736C95.4302 36.9879 94.7815 36.396 93.9387 35.9604C93.1054 35.5153 92.1111 35.2928 90.9558 35.2928H84.6347V44.4121ZM84.6347 31.7701H90.345C91.3109 31.7701 92.1821 31.5901 92.9586 31.2303C93.7351 30.861 94.3507 30.3401 94.8052 29.6678C95.2597 28.9954 95.487 28.2 95.487 27.2814C95.487 26.0977 95.0704 25.1129 94.237 24.3269C93.4132 23.5314 92.1537 23.1337 90.4586 23.1337H84.6347V31.7701ZM112.252 48.8013C110.869 48.8013 109.619 48.5456 108.502 48.0343C107.394 47.5229 106.513 46.7795 105.86 45.8041C105.216 44.8193 104.894 43.6119 104.894 42.182C104.894 40.9415 105.131 39.9235 105.604 39.128C106.078 38.3325 106.712 37.7028 107.508 37.2388C108.313 36.7653 109.207 36.4102 110.192 36.1735C111.187 35.9367 112.205 35.7568 113.246 35.6337C114.544 35.4822 115.595 35.3591 116.4 35.2644C117.214 35.1602 117.806 34.9945 118.175 34.7672C118.545 34.5399 118.729 34.1706 118.729 33.6593V33.5598C118.729 32.3666 118.388 31.4433 117.706 30.7899C117.025 30.1271 116.021 29.7956 114.695 29.7956C113.303 29.7956 112.205 30.0986 111.4 30.7047C110.604 31.3108 110.06 31.9973 109.766 32.7644L105.576 31.9121C106.03 30.5863 106.707 29.5068 107.607 28.6735C108.507 27.8307 109.563 27.2151 110.775 26.8269C111.987 26.4291 113.275 26.2303 114.638 26.2303C115.557 26.2303 116.513 26.3392 117.508 26.557C118.502 26.7653 119.425 27.1441 120.277 27.6933C121.139 28.2426 121.84 29.0144 122.38 30.0087C122.929 30.9935 123.204 32.2625 123.204 33.8155V48.3326H118.857V45.3496H118.687C118.412 45.9083 117.995 46.4528 117.437 46.9831C116.887 47.5134 116.182 47.949 115.32 48.2899C114.468 48.6308 113.445 48.8013 112.252 48.8013ZM113.275 45.307C114.42 45.307 115.401 45.0844 116.215 44.6394C117.029 44.1848 117.654 43.593 118.09 42.8638C118.526 42.1252 118.743 41.3297 118.743 40.4774V37.7218C118.592 37.8733 118.303 38.0106 117.877 38.1337C117.46 38.2473 116.987 38.3515 116.456 38.4462C115.926 38.5409 115.405 38.6214 114.894 38.6877C114.392 38.754 113.966 38.8108 113.616 38.8581C112.811 38.9623 112.077 39.1375 111.414 39.3837C110.751 39.6204 110.225 39.9661 109.837 40.4206C109.449 40.8657 109.255 41.4576 109.255 42.1962C109.255 43.2189 109.634 43.9954 110.391 44.5257C111.149 45.0466 112.11 45.307 113.275 45.307ZM138.005 48.7729C135.874 48.7729 134.046 48.2947 132.522 47.3382C130.997 46.3723 129.823 45.0418 128.999 43.3468C128.175 41.6517 127.763 39.7104 127.763 37.5229C127.763 35.307 128.18 33.3515 129.013 31.6564C129.856 29.9519 131.04 28.6214 132.564 27.6649C134.089 26.7085 135.888 26.2303 137.962 26.2303C139.648 26.2303 141.144 26.5428 142.451 27.1678C143.767 27.7833 144.828 28.6498 145.633 29.7672C146.438 30.8846 146.916 32.1915 147.067 33.6877H142.735C142.517 32.6555 142.01 31.7748 141.215 31.0456C140.42 30.3165 139.359 29.9519 138.033 29.9519C136.878 29.9519 135.869 30.2549 135.008 30.861C134.146 31.467 133.474 32.3288 132.991 33.4462C132.508 34.5636 132.266 35.8894 132.266 37.4235C132.266 38.986 132.503 40.3354 132.976 41.4718C133.45 42.6081 134.117 43.4841 134.979 44.0996C135.85 44.7151 136.868 45.0229 138.033 45.0229C138.829 45.0229 139.548 44.8761 140.192 44.5826C140.836 44.289 141.376 43.8629 141.812 43.3041C142.257 42.7454 142.564 42.0731 142.735 41.2871H147.067C146.916 42.736 146.452 44.0238 145.675 45.1507C144.908 46.2776 143.871 47.163 142.564 47.807C141.267 48.4509 139.747 48.7729 138.005 48.7729ZM155.647 41.074L155.618 35.6337H156.385L164.866 26.5144H170.164L160.32 37.0826H159.567L155.647 41.074ZM151.542 48.3326V19.2416H156.016V48.3326H151.542ZM165.306 48.3326L157.664 38.0769L160.718 34.9377L170.746 48.3326H165.306ZM182.259 56.9689C180.498 56.9689 178.983 56.7369 177.714 56.2729C176.454 55.8089 175.427 55.1886 174.631 54.4121C173.845 53.6451 173.268 52.8022 172.898 51.8837L176.776 50.4774C177.032 50.8941 177.368 51.3297 177.785 51.7843C178.211 52.2483 178.788 52.6365 179.518 52.949C180.247 53.271 181.179 53.432 182.316 53.432C183.888 53.432 185.185 53.0485 186.208 52.2814C187.24 51.5238 187.756 50.3022 187.756 48.6166V44.3695H187.486C187.231 44.8524 186.861 45.378 186.378 45.9462C185.895 46.5049 185.237 46.9879 184.404 47.3951C183.571 47.8022 182.496 48.0058 181.179 48.0058C179.475 48.0058 177.936 47.6034 176.563 46.7985C175.19 45.9935 174.101 44.8004 173.296 43.2189C172.491 41.628 172.089 39.6678 172.089 37.3382C172.089 35.0087 172.486 33.0153 173.282 31.3581C174.077 29.6915 175.161 28.4225 176.535 27.5513C177.917 26.6706 179.475 26.2303 181.208 26.2303C182.543 26.2303 183.627 26.4528 184.461 26.8979C185.294 27.343 185.947 27.8685 186.421 28.4746C186.894 29.0712 187.259 29.6015 187.515 30.0655H187.813V26.5144H192.202V48.7871C192.202 50.6526 191.762 52.1867 190.881 53.3894C190.01 54.6015 188.826 55.5011 187.33 56.0882C185.834 56.6754 184.144 56.9689 182.259 56.9689ZM182.245 44.3553C183.429 44.3553 184.432 44.0759 185.256 43.5172C186.09 42.9585 186.719 42.1536 187.145 41.1024C187.581 40.0418 187.799 38.7729 187.799 37.2956C187.799 35.8468 187.586 34.5731 187.16 33.4746C186.733 32.3761 186.108 31.5238 185.285 30.9178C184.461 30.3022 183.447 29.9945 182.245 29.9945C180.995 29.9945 179.953 30.3165 179.12 30.9604C178.286 31.5949 177.657 32.4661 177.231 33.574C176.814 34.6725 176.606 35.913 176.606 37.2956C176.606 38.7066 176.819 39.9424 177.245 41.003C177.68 42.0541 178.315 42.878 179.148 43.4746C179.982 44.0617 181.014 44.3553 182.245 44.3553ZM197.792 48.3326V26.5144H202.124V30.0229H202.351C202.749 28.8297 203.445 27.8922 204.439 27.2104C205.434 26.5286 206.57 26.1877 207.849 26.1877C208.114 26.1877 208.426 26.1971 208.786 26.2161C209.146 26.235 209.439 26.2634 209.667 26.3013V30.5201C209.477 30.4727 209.16 30.4206 208.715 30.3638C208.279 30.2975 207.844 30.2644 207.408 30.2644C206.414 30.2644 205.528 30.4727 204.752 30.8894C203.985 31.306 203.379 31.8837 202.934 32.6223C202.489 33.3515 202.266 34.1896 202.266 35.1365V48.3326H197.792ZM221.755 48.7729C219.69 48.7729 217.891 48.3041 216.357 47.3666C214.823 46.4291 213.63 45.1176 212.777 43.432C211.935 41.7464 211.513 39.7767 211.513 37.5229C211.513 35.2596 211.935 33.2805 212.777 31.5854C213.63 29.8903 214.823 28.574 216.357 27.6365C217.891 26.699 219.69 26.2303 221.755 26.2303C223.819 26.2303 225.618 26.699 227.152 27.6365C228.687 28.574 229.875 29.8903 230.718 31.5854C231.57 33.2805 231.996 35.2596 231.996 37.5229C231.996 39.7767 231.57 41.7464 230.718 43.432C229.875 45.1176 228.687 46.4291 227.152 47.3666C225.618 48.3041 223.819 48.7729 221.755 48.7729ZM221.769 45.0655C223.057 45.0655 224.122 44.7246 224.965 44.0428C225.817 43.3515 226.447 42.4377 226.854 41.3013C227.271 40.1555 227.479 38.8913 227.479 37.5087C227.479 36.1261 227.271 34.8619 226.854 33.7161C226.447 32.5608 225.817 31.6375 224.965 30.9462C224.122 30.2549 223.057 29.9093 221.769 29.9093C220.472 29.9093 219.397 30.2549 218.545 30.9462C217.692 31.6375 217.058 32.5608 216.641 33.7161C216.224 34.8619 216.016 36.1261 216.016 37.5087C216.016 38.8913 216.224 40.1555 216.641 41.3013C217.058 42.4377 217.692 43.3515 218.545 44.0428C219.397 44.7246 220.472 45.0655 221.769 45.0655ZM250.469 39.2558V26.5144H254.929V48.3326H250.569V44.5257H250.341C249.84 45.7094 249.035 46.6896 247.927 47.4661C246.828 48.2331 245.455 48.6166 243.807 48.6166C242.406 48.6166 241.165 48.3041 240.086 47.6791C239.006 47.0541 238.159 46.1308 237.543 44.9093C236.928 43.6877 236.62 42.182 236.62 40.3922V26.5144H241.094V39.8098C241.094 41.2776 241.497 42.4424 242.302 43.3041C243.107 44.1659 244.158 44.5968 245.455 44.5968C246.241 44.5968 247.018 44.4026 247.785 44.0144C248.561 43.6261 249.2 43.039 249.702 42.253C250.214 41.4575 250.469 40.4585 250.469 39.2558ZM265.001 35.4206V48.3326H260.526V26.5144H264.816V30.1081H265.086C265.588 28.9339 266.378 27.9964 267.458 27.2956C268.537 26.5854 269.896 26.2303 271.535 26.2303C273.021 26.2303 274.323 26.5428 275.441 27.1678C276.558 27.7928 277.425 28.7161 278.04 29.9377C278.665 31.1593 278.973 32.6649 278.964 34.4547V48.3326H274.503V35.0371C274.503 33.4746 274.101 32.2577 273.296 31.3865C272.491 30.5153 271.383 30.0797 269.972 30.0797C269.006 30.0797 268.149 30.288 267.401 30.7047C266.653 31.1214 266.066 31.7274 265.64 32.5229C265.214 33.3183 265.001 34.2843 265.001 35.4206ZM292.703 48.7445C290.951 48.7445 289.389 48.2994 288.015 47.4093C286.652 46.5096 285.577 45.217 284.791 43.5314C284.005 41.8458 283.612 39.824 283.612 37.4661C283.612 35.0892 284.01 33.0627 284.805 31.3865C285.601 29.7104 286.685 28.432 288.058 27.5513C289.441 26.6706 290.998 26.2303 292.731 26.2303C294.067 26.2303 295.146 26.4528 295.97 26.8979C296.803 27.343 297.452 27.8685 297.916 28.4746C298.38 29.0712 298.74 29.6015 298.996 30.0655H299.237V19.2416H303.711V48.3326H299.336V44.9235H298.996C298.74 45.4064 298.371 45.9462 297.888 46.5428C297.405 47.1394 296.746 47.6555 295.913 48.0911C295.08 48.5267 294.01 48.7445 292.703 48.7445ZM293.768 44.9803C294.952 44.9803 295.956 44.663 296.78 44.0286C297.613 43.3941 298.243 42.5134 298.669 41.3865C299.104 40.2502 299.322 38.9291 299.322 37.4235C299.322 35.9272 299.109 34.6252 298.683 33.5172C298.257 32.3998 297.632 31.5333 296.808 30.9178C295.984 30.3022 294.971 29.9945 293.768 29.9945C292.518 29.9945 291.477 30.3165 290.643 30.9604C289.81 31.6043 289.18 32.4897 288.754 33.6166C288.337 34.7341 288.129 36.003 288.129 37.4235C288.129 38.8629 288.342 40.1555 288.768 41.3013C289.204 42.4377 289.838 43.3373 290.672 44.0002C291.505 44.6536 292.537 44.9803 293.768 44.9803Z" fill="black"/>
<path d="M320.37 48.3326V19.2416H330.881C333.126 19.2416 334.996 19.6299 336.492 20.4064C337.988 21.1829 339.11 22.2625 339.858 23.6451C340.616 25.0182 340.995 26.6043 340.995 28.4036C340.995 30.2123 340.616 31.7937 339.858 33.1479C339.101 34.4926 337.969 35.539 336.464 36.2871C334.967 37.0352 333.097 37.4093 330.853 37.4093H323.012V33.4888H330.37C331.771 33.4888 332.908 33.2899 333.779 32.8922C334.66 32.4945 335.304 31.9168 335.711 31.1593C336.127 30.4017 336.336 29.4831 336.336 28.4036C336.336 27.324 336.127 26.3913 335.711 25.6053C335.304 24.8193 334.655 24.218 333.765 23.8013C332.884 23.3752 331.738 23.1621 330.327 23.1621H324.986V48.3326H320.37ZM334.901 35.1933L342.089 48.3326H336.876L329.816 35.1933H334.901ZM355.118 48.7729C352.959 48.7729 351.098 48.3136 349.535 47.3951C347.982 46.467 346.784 45.1649 345.942 43.4888C345.099 41.8032 344.677 39.8288 344.677 37.5655C344.677 35.3307 345.099 33.361 345.942 31.6564C346.784 29.9519 347.963 28.6214 349.478 27.6649C351.003 26.7085 352.783 26.2303 354.819 26.2303C356.079 26.2303 357.291 26.4386 358.456 26.8553C359.621 27.2625 360.662 27.9064 361.581 28.7871C362.499 29.6583 363.224 30.7899 363.754 32.182C364.294 33.574 364.564 35.2502 364.564 37.2104V38.7303H347.078V35.4774H360.203C360.203 34.3979 359.98 33.4367 359.535 32.5939C359.09 31.7511 358.465 31.0882 357.66 30.6053C356.865 30.1129 355.932 29.8666 354.862 29.8666C353.697 29.8666 352.684 30.146 351.822 30.7047C350.961 31.2634 350.293 31.9973 349.819 32.9064C349.355 33.8155 349.123 34.8004 349.123 35.861V38.4746C349.123 39.8856 349.374 41.0882 349.876 42.0826C350.378 43.0769 351.079 43.8344 351.978 44.3553C352.888 44.8761 353.948 45.1365 355.16 45.1365C355.956 45.1365 356.675 45.0276 357.319 44.8098C357.973 44.5825 358.536 44.2416 359.01 43.7871C359.483 43.3325 359.843 42.7691 360.089 42.0968L364.308 42.7786C363.986 43.9812 363.408 45.0324 362.575 45.932C361.742 46.8316 360.691 47.5324 359.422 48.0343C358.162 48.5267 356.728 48.7729 355.118 48.7729ZM369.198 48.3326V26.5144H373.488V30.1081H373.758C374.212 28.896 374.956 27.949 375.988 27.2672C377.02 26.5759 378.26 26.2303 379.709 26.2303C381.168 26.2303 382.394 26.5759 383.388 27.2672C384.392 27.949 385.121 28.896 385.576 30.1081H385.803C386.324 28.9244 387.152 27.9822 388.289 27.2814C389.425 26.5807 390.779 26.2303 392.351 26.2303C394.34 26.2303 395.959 26.8553 397.209 28.1053C398.469 29.3553 399.099 31.2208 399.099 33.7019V48.3326H394.638V34.199C394.638 32.7502 394.245 31.699 393.459 31.0456C392.683 30.3922 391.745 30.0655 390.647 30.0655C389.293 30.0655 388.242 30.4822 387.493 31.3155C386.745 32.1394 386.371 33.2 386.371 34.4973V48.3326H381.939V33.9433C381.939 32.7691 381.575 31.8316 380.846 31.1308C380.126 30.4206 379.188 30.0655 378.033 30.0655C377.247 30.0655 376.523 30.2691 375.86 30.6763C375.197 31.0835 374.667 31.6517 374.269 32.3808C373.871 33.11 373.672 33.9575 373.672 34.9235V48.3326H369.198ZM413.942 48.7729C411.878 48.7729 410.079 48.3041 408.545 47.3666C407.01 46.4291 405.817 45.1176 404.965 43.432C404.122 41.7464 403.701 39.7767 403.701 37.5229C403.701 35.2596 404.122 33.2805 404.965 31.5854C405.817 29.8903 407.01 28.574 408.545 27.6365C410.079 26.699 411.878 26.2303 413.942 26.2303C416.007 26.2303 417.806 26.699 419.34 27.6365C420.874 28.574 422.063 29.8903 422.905 31.5854C423.758 33.2805 424.184 35.2596 424.184 37.5229C424.184 39.7767 423.758 41.7464 422.905 43.432C422.063 45.1176 420.874 46.4291 419.34 47.3666C417.806 48.3041 416.007 48.7729 413.942 48.7729ZM413.956 45.0655C415.244 45.0655 416.31 44.7246 417.152 44.0428C418.005 43.3515 418.635 42.4377 419.042 41.3013C419.458 40.1555 419.667 38.8913 419.667 37.5087C419.667 36.1261 419.458 34.8619 419.042 33.7161C418.635 32.5608 418.005 31.6375 417.152 30.9462C416.31 30.2549 415.244 29.9093 413.956 29.9093C412.659 29.9093 411.584 30.2549 410.732 30.9462C409.88 31.6375 409.245 32.5608 408.829 33.7161C408.412 34.8619 408.204 36.1261 408.204 37.5087C408.204 38.8913 408.412 40.1555 408.829 41.3013C409.245 42.4377 409.88 43.3515 410.732 44.0428C411.584 44.7246 412.659 45.0655 413.956 45.0655ZM446.943 26.5144L439.045 48.3326H434.23L426.346 26.5144H431.133L436.531 43.1621H436.758L442.156 26.5144H446.943ZM459.571 48.7729C457.412 48.7729 455.551 48.3136 453.988 47.3951C452.435 46.467 451.237 45.1649 450.395 43.4888C449.552 41.8032 449.13 39.8288 449.13 37.5655C449.13 35.3307 449.552 33.361 450.395 31.6564C451.237 29.9519 452.416 28.6214 453.932 27.6649C455.456 26.7085 457.237 26.2303 459.273 26.2303C460.532 26.2303 461.744 26.4386 462.909 26.8553C464.074 27.2625 465.115 27.9064 466.034 28.7871C466.952 29.6583 467.677 30.7899 468.207 32.182C468.747 33.574 469.017 35.2502 469.017 37.2104V38.7303H451.531V35.4774H464.656C464.656 34.3979 464.434 33.4367 463.988 32.5939C463.543 31.7511 462.918 31.0882 462.113 30.6053C461.318 30.1129 460.385 29.8666 459.315 29.8666C458.15 29.8666 457.137 30.146 456.275 30.7047C455.414 31.2634 454.746 31.9973 454.273 32.9064C453.809 33.8155 453.577 34.8004 453.577 35.861V38.4746C453.577 39.8856 453.827 41.0882 454.329 42.0826C454.831 43.0769 455.532 43.8344 456.432 44.3553C457.341 44.8761 458.401 45.1365 459.613 45.1365C460.409 45.1365 461.129 45.0276 461.773 44.8098C462.426 44.5825 462.989 44.2416 463.463 43.7871C463.936 43.3325 464.296 42.7691 464.542 42.0968L468.761 42.7786C468.439 43.9812 467.862 45.0324 467.028 45.932C466.195 46.8316 465.144 47.5324 463.875 48.0343C462.615 48.5267 461.181 48.7729 459.571 48.7729ZM473.651 48.3326V26.5144H477.983V30.0229H478.211C478.608 28.8297 479.304 27.8922 480.299 27.2104C481.293 26.5286 482.429 26.1877 483.708 26.1877C483.973 26.1877 484.286 26.1971 484.645 26.2161C485.005 26.235 485.299 26.2634 485.526 26.3013V30.5201C485.337 30.4727 485.019 30.4206 484.574 30.3638C484.139 30.2975 483.703 30.2644 483.268 30.2644C482.273 30.2644 481.388 30.4727 480.611 30.8894C479.844 31.306 479.238 31.8837 478.793 32.6223C478.348 33.3515 478.126 34.1896 478.126 35.1365V48.3326H473.651Z" fill="#6C72AB"/>
</svg>
