<svg width="50" height="50" viewBox="0 0 50 50" fill="none" xmlns="http://www.w3.org/2000/svg">
<path d="M46.7917 12.4999C45.1875 13.2291 43.4583 13.7083 41.6667 13.9374C43.5 12.8333 44.9167 11.0833 45.5833 8.97909C43.8542 10.0208 41.9375 10.7499 39.9167 11.1666C38.2708 9.37492 35.9583 8.33325 33.3333 8.33325C28.4375 8.33325 24.4375 12.3333 24.4375 17.2708C24.4375 17.9791 24.5208 18.6666 24.6667 19.3124C17.25 18.9374 10.6458 15.3749 6.25001 9.97909C5.47918 11.2916 5.04168 12.8333 5.04168 14.4583C5.04168 17.5624 6.60418 20.3124 9.02084 21.8749C7.54168 21.8749 6.16668 21.4583 4.95834 20.8333V20.8958C4.95834 25.2291 8.04168 28.8541 12.125 29.6666C10.814 30.0254 9.43771 30.0753 8.10418 29.8124C8.67002 31.5884 9.77821 33.1424 11.273 34.256C12.7677 35.3696 14.5739 35.9868 16.4375 36.0208C13.2784 38.5217 9.3625 39.8735 5.33334 39.8541C4.62501 39.8541 3.91668 39.8124 3.20834 39.7291C7.16668 42.2708 11.875 43.7499 16.9167 43.7499C33.3333 43.7499 42.3542 30.1249 42.3542 18.3124C42.3542 17.9166 42.3542 17.5416 42.3333 17.1458C44.0833 15.8958 45.5833 14.3124 46.7917 12.4999Z" fill="black"/>
</svg>
